<?xml version='1.0' encoding='utf-8'?>
<svg xmlns="http://www.w3.org/2000/svg" width="320" height="240" viewBox="0 256.25 2050 1537.5">

<rect x="0" y="256.25" width="2050" height="1537.5" fill="#000000" /><defs>

<style>.cls-1{fill:#000000;}.cls-2{fill:#ffc500;}.cls-3{fill:#ff9f1e;}.cls-4{fill:#ffe059;}.cls-5{fill:#ffffff;}.cls-6{fill:#ff4f4f;}</style>

</defs>

<title />

<g data-name="Layer 1" id="Layer_1">

</g>

<g data-name="Layer 3" id="Layer_3">

<ellipse class="cls-5" cx="821.8" cy="930.1" rx="94.9" ry="60.2" transform="translate(-245.44 -77.97) translate(-143.1 1710.9) rotate(-87.5)" />

<circle class="cls-1" cx="851.5" cy="891.5" r="16.6" transform="translate(-245.44 -77.97)" />

<path class="cls-5" d="M1014.5,1334.6h-.1a30,30,0,0,1,0-60h.1c24.6,0,37.3-13.1,38.1-22.1.6-5.7-5.9-13.7-26.2-17.7a30,30,0,1,1,11.5-58.9c24.2,4.8,43.2,14.5,56.5,29.1s19.9,33.8,18,53.3-13.5,40.7-31.4,54.7S1039.9,1334.6,1014.5,1334.6Z" transform="translate(14.69 -0.62)" />

<path class="cls-5" d="M1032.1,1235.4a30,30,0,0,1-5.7-59.5c12.7-2.4,27.1-8.6,26.2-17.7s-13.6-22.1-38.1-22.1h-.1a30,30,0,0,1,0-60h.1c25.4,0,48.4,7.5,66.5,21.7s29.4,33.9,31.4,54.6a68.4,68.4,0,0,1-18,53.3c-13.3,14.6-32.3,24.4-56.5,29.1A28.6,28.6,0,0,1,1032.1,1235.4Z" transform="translate(14.69 -0.62)" />

<path class="cls-5" d="M1313.6,998.8a29.6,29.6,0,0,1-19.1-6.9h0c-.6-.5-63.7-51.8-122.1-42.6a29.7,29.7,0,0,1-29.1-12.2,30,30,0,0,1-2-31.6c29.6-55.1,73.3-75.7,104.7-83.3,33.3-8.1,59.8-3.4,62.7-2.9,30.7,15.6,17.3,61.6-11.2,59h.2A104.8,104.8,0,0,0,1258,881a98.9,98.9,0,0,0-28.5,12.7c56.9,14,100.8,50,103.3,52.1a30,30,0,0,1-19.2,53Z" transform="translate(228.44 -48.75)" />

<path class="cls-6" d="M1517.5,1058.3a82.8,82.8,0,0,0-116.9,0,82.8,82.8,0,0,0-117.7.8c-31.7,32.6-30.5,84.9,1.6,117.1l91,90.9a34.9,34.9,0,0,0,49.5,0l85.9-85.8q3.4-2.8,6.6-6A82.7,82.7,0,0,0,1517.5,1058.3Z" transform="translate(14.69 -0.62)" />

</g>

</svg>