<?xml version='1.0' encoding='utf-8'?>
<svg xmlns="http://www.w3.org/2000/svg" width="320" height="240" viewBox="0 256.25 2050 1537.5">

<rect x="0" y="256.25" width="2050" height="1537.5" fill="#000000" /><defs>

<style>.cls-1{fill:#000000;}.cls-2{fill:#ffc500;}.cls-3{fill:#ff9f1e;}.cls-4{fill:#ffe059;}.cls-5{fill:#ffffff;}</style>

</defs>

<title />

<g data-name="Layer 1" id="Layer_1">

</g>

<g data-name="Layer 3" id="Layer_3">

<ellipse class="cls-5" cx="809.8" cy="930.8" rx="109.1" ry="69.2" transform="translate(-233.44 -78.97) translate(-155.2 1699.5) rotate(-87.5)" />

<circle class="cls-1" cx="848.1" cy="932.4" r="19.1" transform="translate(-233.44 -78.97)" />

<path class="cls-5" d="M1138.7,945.6a30.7,30.7,0,0,1-13.7-3.3,30,30,0,0,1-13-40.4c26.2-51.3,63.4-79.5,104.7-79.5s78.5,28.2,104.7,79.5a30,30,0,0,1-53.4,27.4c-15-29.4-34.2-46.9-51.3-46.9s-36.3,17.5-51.3,46.9A30,30,0,0,1,1138.7,945.6Z" transform="translate(256.44 -28.75)" />

<path class="cls-5" d="M1034,1283.5c-8.8,0-17.9-.3-27.3-1a426.8,426.8,0,0,1-77.8-12.8,30,30,0,0,1,16.4-57.7h0a378.5,378.5,0,0,0,66.9,10.7c32.1,2.2,77.1.6,108.7-19.5,21.6-13.7,34.4-34.7,39.3-63.9a30,30,0,1,1,59.2,9.7c-7.7,46.5-30,81.8-66.5,104.9C1121.9,1273.6,1082,1283.5,1034,1283.5Z" transform="translate(4.69 -15.62)" />

</g>

</svg>