<?xml version='1.0' encoding='utf-8'?>
<svg xmlns="http://www.w3.org/2000/svg" width="320" height="240" viewBox="0 256.25 2050 1537.5">

<defs>

<style>.cls-1{fill:#ffffff;}.cls-2{fill:#ffc500;}.cls-3{fill:#ff9f1e;}.cls-4{fill:#ffe059;}.cls-5{fill:#00305f;}.cls-6{fill:#4795ff;}</style>

</defs>

<title />

<g data-name="Layer 1" id="Layer_1">

</g>

<g data-name="Layer 3" id="Layer_3">

<path class="cls-5" d="M1224.1,1010.3c-41.3,0-78.5-28.2-104.7-79.5a30,30,0,1,1,53.4-27.3c15,29.3,34.2,46.8,51.3,46.8s36.3-17.5,51.3-46.8a30,30,0,1,1,53.4,27.3C1302.6,982.1,1265.4,1010.3,1224.1,1010.3Z" transform="translate(249.44 -88.75)" />

<path class="cls-5" d="M825.9,1010.3c-41.3,0-78.5-28.2-104.7-79.5a30,30,0,1,1,53.4-27.3c15,29.3,34.2,46.8,51.3,46.8s36.3-17.5,51.3-46.8a30,30,0,1,1,53.4,27.3C904.4,982.1,867.2,1010.3,825.9,1010.3Z" transform="translate(-249.44 -107.97)" />

<path class="cls-5" d="M1136.8,1221.4a30.1,30.1,0,0,1-19.7-7.3c-31.4-27.2-62.4-41-92.1-41s-60.7,13.8-92.1,41a30,30,0,1,1-39.3-45.4c42.7-36.9,86.9-55.6,131.4-55.6s88.7,18.7,131.4,55.6a30,30,0,0,1-19.6,52.7Z" transform="translate(19.69 29.38)" />

<path class="cls-6" d="M677.6,1176.5h0a67.8,67.8,0,0,0,56.2-61.1l6.5-74.4a24,24,0,0,0-33.6-23.9l-68.2,30.6a67.8,67.8,0,0,0-39.1,73.2h0A67.9,67.9,0,0,0,677.6,1176.5Z" transform="translate(-249.44 -107.97)" />

</g>

</svg>