<?xml version='1.0' encoding='utf-8'?>
<svg xmlns="http://www.w3.org/2000/svg" width="320" height="240" viewBox="0 256.25 2050 1537.5">

<defs>

<style>.cls-1{fill:#ffffff;}.cls-2{fill:#ffc500;}.cls-3{fill:#ff9f1e;}.cls-4{fill:#ffe059;}.cls-5{fill:#4795ff;}.cls-6{fill:#4778ff;}.cls-7{fill:#00305f;}</style>

</defs>

<title />

<g data-name="Layer 1" id="Layer_1">

</g>

<g data-name="Layer 3" id="Layer_3">

<path class="cls-5" d="M885.9,1332.9c-10.2-111.3-64-106.3-74.2-217.6s43.6-116.2,33.4-227.5L732.8,897.9c10.2,111.3-43.6,116.2-33.4,227.5s64,106.3,74.2,217.6-43,116.2-33.6,225.6a604.4,604.4,0,0,0,110.3,44.9c3-3.6,6.1-7.4,9.2-11.4C849.3,1490.9,896,1444.2,885.9,1332.9Z" transform="translate(-214.44 -27.97)" />

<path class="cls-6" d="M753.8,1465.1c-9.6,26.1-18,54.3-13.8,103.5a604.4,604.4,0,0,0,110.3,44.9c3-3.6,6.1-7.4,9.2-11.4a331.8,331.8,0,0,1,3.1-85.7A615.4,615.4,0,0,1,753.8,1465.1Z" transform="translate(-214.44 -27.97)" />

<path class="cls-7" d="M1100.5,1144a29.2,29.2,0,0,1-15-4.1c-41.3-23.9-79.7-23.9-121,0a30,30,0,0,1-30.1-51.9c29.7-17.2,60.2-26,90.6-26s60.9,8.8,90.6,26a30,30,0,0,1-15.1,56Z" transform="translate(19.69 94.38)" />

<path class="cls-7" d="M906.9,909.8H675.5a30,30,0,0,1,0-60H906.9a30,30,0,0,1,0,60Z" transform="translate(-214.44 -27.97)" />

<path class="cls-5" d="M1164.1,1332.9c10.2-111.3,64-106.3,74.2-217.6s-43.6-116.2-33.4-227.5l112.3,10.1c-10.2,111.3,43.6,116.2,33.4,227.5s-64,106.3-74.2,217.6,43,116.2,33.6,225.6a604.4,604.4,0,0,1-110.3,44.9c-3-3.6-6.1-7.4-9.2-11.4C1200.7,1490.9,1154,1444.2,1164.1,1332.9Z" transform="translate(214.44 -8.75)" />

<path class="cls-6" d="M1190.5,1602.1c3.1,4,6.2,7.8,9.2,11.4a604.4,604.4,0,0,0,110.3-44.9c2.3-27,.8-47.6-2.5-65.1a609.6,609.6,0,0,1-117.1,36.2A332,332,0,0,1,1190.5,1602.1Z" transform="translate(214.44 -8.75)" />

<path class="cls-7" d="M1143.1,909.8h231.4a30,30,0,0,0,0-60H1143.1a30,30,0,0,0,0,60Z" transform="translate(214.44 -8.75)" />

</g>

</svg>