<?xml version='1.0' encoding='utf-8'?>
<svg xmlns="http://www.w3.org/2000/svg" width="320" height="240" viewBox="0 256.25 2050 1537.5">

<defs>

<style>.cls-1{fill:#ffffff;}.cls-2{fill:#ffc500;}.cls-3{fill:#ff9f1e;}.cls-4{fill:#ffe059;}.cls-5{fill:#00305f;}</style>

</defs>

<title />

<g data-name="Layer 1" id="Layer_1">

</g>

<g data-name="Layer 3" id="Layer_3">

<ellipse class="cls-5" cx="793.2" cy="950.9" rx="94.9" ry="60.2" transform="translate(-216.44 -98.97) matrix(0.04, -1, 1, 0.04, -191.12, 1702.11)" />

<circle class="cls-1" cx="826.5" cy="952.3" r="16.6" transform="translate(-216.44 -98.97)" />

<ellipse class="cls-5" cx="1256.8" cy="950.9" rx="60.2" ry="94.9" transform="translate(216.44 -79.75) translate(-40 55.4) rotate(-2.5)" />

<circle class="cls-1" cx="1223.5" cy="952.3" r="16.6" transform="translate(216.44 -79.75)" />

<path class="cls-5" d="M1135,1295.5a29.9,29.9,0,0,1-12.6-2.8c-42.5-19.6-85.4-29.6-127.5-29.6s-85,10-127.5,29.6a30,30,0,0,1-25.2-54.5c101.3-46.7,204.1-46.7,305.4,0a30.1,30.1,0,0,1-12.6,57.3Z" transform="translate(49.69 -75.62)" />

<path class="cls-5" d="M832.8,1369.3a29.6,29.6,0,0,1-19.4-7.1,30,30,0,0,1-3.4-42.3,67.7,67.7,0,0,0-10.6-97.5,30,30,0,1,1,36.4-47.6,128.4,128.4,0,0,1,39.5,50.2,127.9,127.9,0,0,1-19.6,133.8A30.1,30.1,0,0,1,832.8,1369.3Z" transform="translate(49.69 -75.62)" />

</g>

</svg>