<?xml version='1.0' encoding='utf-8'?>
<svg xmlns="http://www.w3.org/2000/svg" width="320" height="240" viewBox="0 256.25 2050 1537.5">

<rect x="0" y="256.25" width="2050" height="1537.5" fill="#000000" /><defs>

<style>.cls-1{fill:#000000;}.cls-2{fill:#ffc500;}.cls-3{fill:#ff9f1e;}.cls-4{fill:#ffe059;}.cls-5{fill:#ff4f4f;}.cls-6{fill:#ffffff;}</style>

</defs>

<title />

<g data-name="Layer 1" id="Layer_1">

</g>

<g data-name="Layer 3" id="Layer_3">

<path class="cls-5" d="M1478.1,706.5a30,30,0,0,1-30-30V514.4a30,30,0,0,1,60,0V676.5A30,30,0,0,1,1478.1,706.5Z" transform="translate(194.44 -48.75)" />

<path class="cls-5" d="M1254.8,753.3a30,30,0,0,1-30-30v-162a30,30,0,0,1,60,0v162A30,30,0,0,1,1254.8,753.3Z" transform="translate(194.44 -48.75)" />

<path class="cls-5" d="M1362.8,794.7a30.1,30.1,0,0,1-30-30V399.2a30,30,0,0,1,60,0V764.7A30,30,0,0,1,1362.8,794.7Z" transform="translate(194.44 -48.75)" />

<rect class="cls-6" height="378.7" rx="112.8" ry="112.8" width="225.7" x="912.2" y="1114" transform="translate(19.69 -95.62)" />

<path class="cls-6" d="M771,1037.1c-64.7,0-117.4-52.7-117.4-117.5A117.6,117.6,0,0,1,771,802.2c64.8,0,117.5,52.7,117.5,117.4A117.6,117.6,0,0,1,771,1037.1Zm0-174.9a57.5,57.5,0,1,0,57.5,57.4A57.4,57.4,0,0,0,771,862.2Z" transform="translate(-194.44 -67.97)" />

<path class="cls-6" d="M1279,1037.1a117.6,117.6,0,0,1-117.5-117.5c0-64.7,52.7-117.4,117.5-117.4a117.6,117.6,0,0,1,117.4,117.4C1396.4,984.4,1343.7,1037.1,1279,1037.1Zm0-174.9a57.5,57.5,0,1,0,57.4,57.4A57.5,57.5,0,0,0,1279,862.2Z" transform="translate(194.44 -48.75)" />

<path class="cls-5" d="M1025,1305.9a280.8,280.8,0,0,0-112.8,23.5v50.5A112.8,112.8,0,0,0,1025,1492.7h0a112.8,112.8,0,0,0,112.8-112.8v-50.5A280.8,280.8,0,0,0,1025,1305.9Z" transform="translate(19.69 -95.62)" />

</g>

</svg>