<?xml version='1.0' encoding='utf-8'?>
<svg xmlns="http://www.w3.org/2000/svg" width="320" height="240" viewBox="0 256.25 2050 1537.5">

<defs>

<style>.cls-1{fill:#ffffff;}.cls-2{fill:#ffc500;}.cls-3{fill:#ff9f1e;}.cls-4{fill:#ffe059;}.cls-5{fill:#00305f;}</style>

</defs>

<title />

<g data-name="Layer 1" id="Layer_1">

</g>

<g data-name="Layer 3" id="Layer_3">

<path class="cls-5" d="M1136.7,1282.7a30,30,0,0,1-12-2.5c-67.1-29.4-132.3-29.4-199.4,0a30,30,0,0,1-24.1-55c82.1-36,165.5-36,247.6,0a30,30,0,0,1-12.1,57.5Z" />

<ellipse class="cls-5" cx="793.2" cy="956.6" rx="94.9" ry="60.2" transform="translate(-196.9 1707.6) rotate(-87.5)" />

<circle class="cls-1" cx="826.5" cy="958.1" r="16.6" />

<path class="cls-5" d="M881.2,948a30,30,0,0,1-10.9-2L674.9,869.7a30,30,0,1,1,21.8-55.9l195.4,76.3A30,30,0,0,1,881.2,948Z" />

<ellipse class="cls-5" cx="1256.8" cy="956.6" rx="60.2" ry="94.9" transform="matrix(1, -0.04, 0.04, 1, -40.28, 55.37)" />

<circle class="cls-1" cx="1223.5" cy="958.1" r="16.6" />

<path class="cls-5" d="M1168.8,948a30,30,0,0,1-10.9-57.9l195.4-76.3a30,30,0,1,1,21.8,55.9L1179.7,946A30,30,0,0,1,1168.8,948Z" />

</g>

</svg>