<?xml version='1.0' encoding='utf-8'?>
<svg xmlns="http://www.w3.org/2000/svg" width="320" height="240" viewBox="0 256.25 2050 1537.5">

<defs>

<style>.cls-1{fill:#ffffff;}.cls-2{fill:#ffc500;}.cls-3{fill:#ff9f1e;}.cls-4{fill:#ffe059;}.cls-5{fill:#ff4f4f;}.cls-6{fill:#00305f;}</style>

</defs>

<title />

<g data-name="Layer 1" id="Layer_1">

</g>

<g data-name="Layer 3" id="Layer_3">

<path class="cls-5" d="M1326,1355.3a111.7,111.7,0,0,1-79.2-32.7l-70.1-70.2a30,30,0,0,1,42.4-42.4l75.3-71.9a30,30,0,0,1,42.4-42.4l68.4,68.4a112,112,0,0,1-79.2,191.2Z" />

<path class="cls-6" d="M1025,1308.7h0c-74.2,0-144.6-22.2-203.5-64.2a328.8,328.8,0,0,1-73.5-72.1,307.4,307.4,0,0,1-46.4-91.7,30,30,0,1,1,57.4-17.6c16,52.1,50.6,99.2,97.4,132.5,48.6,34.7,107,53.1,168.6,53.1h0c61.6,0,119.9-18.4,168.6-53.1,46.8-33.3,81.4-80.4,97.4-132.5a30,30,0,1,1,57.4,17.6,307.4,307.4,0,0,1-46.4,91.7,328.8,328.8,0,0,1-73.5,72.1C1169.5,1286.5,1099.2,1308.7,1025,1308.7Z" />

<path class="cls-6" d="M1302.1,883.3a30,30,0,0,1-26.7-16.4c-15-29.3-34.2-46.8-51.3-46.8s-36.3,17.5-51.3,46.8a30,30,0,1,1-53.4-27.3c26.2-51.3,63.4-79.5,104.7-79.5h0c41.3,0,78.5,28.2,104.7,79.5a30,30,0,0,1-13,40.4A30.7,30.7,0,0,1,1302.1,883.3Z" />

<path class="cls-6" d="M904,883.2a29.9,29.9,0,0,1-26.8-16.3c-15-29.3-34.2-46.9-51.3-46.9s-36.3,17.6-51.3,46.9a30,30,0,0,1-53.4-27.3c26.2-51.3,63.4-79.6,104.7-79.6h0c41.3,0,78.5,28.3,104.7,79.6a29.9,29.9,0,0,1-13,40.3A29.3,29.3,0,0,1,904,883.2Z" />

</g>

</svg>