<?xml version='1.0' encoding='utf-8'?>
<svg xmlns="http://www.w3.org/2000/svg" width="320" height="240" viewBox="0 256.25 2050 1537.5">

<defs>

<style>.cls-1{fill:#ffffff;}.cls-2{fill:#ffc500;}.cls-3{fill:#ff9f1e;}.cls-4{fill:#ffe059;}.cls-5{fill:#00305f;}</style>

</defs>

<title />

<g data-name="Layer 1" id="Layer_1">

</g>

<g data-name="Layer 3" id="Layer_3">

<path class="cls-5" d="M853.4,933.4c-2.3,52.4-31.1,76.6-64.3,75.2s-58.3-28.1-56-80.4,31-93.7,64.2-92.2S855.6,881,853.4,933.4Z" />

<circle class="cls-1" cx="826.5" cy="932.2" r="16.6" />

<path class="cls-5" d="M1196.6,933.4c2.3,52.4,31.1,76.6,64.3,75.2s58.3-28.1,56-80.4-31-93.7-64.2-92.2S1194.4,881,1196.6,933.4Z" />

<circle class="cls-1" cx="1223.5" cy="932.2" r="16.6" />

<path class="cls-5" d="M694.3,1055a30,30,0,0,1-14.5-56.3c32.1-17.6,64.9-26.5,97.6-26.5s65.6,8.9,97.6,26.5a30,30,0,1,1-28.9,52.6c-46.2-25.4-91.1-25.4-137.4,0A30,30,0,0,1,694.3,1055Z" />

<path class="cls-5" d="M1355.7,1055a30,30,0,0,1-14.4-3.7c-46.3-25.4-91.2-25.4-137.4,0a30,30,0,1,1-28.9-52.6c32-17.6,64.9-26.5,97.6-26.5h0c32.7,0,65.5,8.9,97.6,26.5a30,30,0,0,1-14.5,56.3Z" />

<path class="cls-5" d="M968.6,1327.7c-38.1,0-80.7-25.5-89.8-84.3a30,30,0,0,1,59.3-9.2c5.1,33,26.1,33.9,32.4,33.4,18.1-1.4,24.5-16.4,24.5-28.8a30,30,0,0,1,60,0c0,54.2-40.2,85.6-79.9,88.7Z" />

<path class="cls-5" d="M1081.4,1327.7l-6.5-.2c-39.7-3.1-79.9-34.5-79.9-88.7a30,30,0,0,1,60,0c0,12.4,6.4,27.4,24.5,28.8,6.3.5,27.3-.4,32.4-33.4a30,30,0,0,1,59.3,9.2C1162.1,1302.2,1119.5,1327.7,1081.4,1327.7Z" />

</g>

</svg>