<?xml version='1.0' encoding='utf-8'?>
<svg xmlns="http://www.w3.org/2000/svg" width="320" height="240" viewBox="0 256.25 2050 1537.5">

<defs>

<style>.cls-1{fill:#ffffff;}.cls-2{fill:#ffc500;}.cls-3{fill:#ff9f1e;}.cls-4{fill:#ffe059;}.cls-5{fill:#00305f;}.cls-6{fill:#456482;}</style>

</defs>

<title />

<g data-name="Layer 1" id="Layer_1">

</g>

<g data-name="Layer 3" id="Layer_3">

<ellipse class="cls-5" cx="793.2" cy="930.8" rx="94.9" ry="60.2" transform="translate(-171.1 1682.9) rotate(-87.5)" />

<circle class="cls-1" cx="826.5" cy="932.2" r="16.6" />

<ellipse class="cls-5" cx="1256.8" cy="930.8" rx="60.2" ry="94.9" transform="translate(-39.2 55.3) rotate(-2.5)" />

<circle class="cls-1" cx="1223.5" cy="932.2" r="16.6" />

<path class="cls-5" d="M1256.8,1284H697.4a30,30,0,0,1,0-60h559.4a30,30,0,1,1,0,60Z" />

<path class="cls-5" d="M750.3,1325.7a30.1,30.1,0,0,1-30-30v-86.5a30,30,0,0,1,60,0v86.5A30,30,0,0,1,750.3,1325.7Z" />

<path class="cls-5" d="M858.2,1325.7a30,30,0,0,1-30-30v-86.5a30,30,0,0,1,60,0v86.5A30.1,30.1,0,0,1,858.2,1325.7Z" />

<path class="cls-5" d="M966,1325.7a30,30,0,0,1-30-30v-86.5a30,30,0,1,1,60,0v86.5A30.1,30.1,0,0,1,966,1325.7Z" />

<path class="cls-5" d="M1073.8,1325.7a30,30,0,0,1-30-30v-86.5a30,30,0,0,1,60,0v86.5A30.1,30.1,0,0,1,1073.8,1325.7Z" />

<path class="cls-5" d="M1181.6,1325.7a30,30,0,0,1-30-30v-86.5a30,30,0,0,1,60,0v86.5A30.1,30.1,0,0,1,1181.6,1325.7Z" />

<path class="cls-6" d="M1431.4,1333.4l-144.7-20.6a34.7,34.7,0,0,1-29.9-34.5v-35.5a34.8,34.8,0,0,1,29.9-34.5l144.7-20.5a34.8,34.8,0,0,1,39.7,34.4v76.7A34.8,34.8,0,0,1,1431.4,1333.4Z" />

</g>

</svg>