<?xml version='1.0' encoding='utf-8'?>
<svg xmlns="http://www.w3.org/2000/svg" width="320" height="240" viewBox="0 256.25 2050 1537.5">

<defs>

<style>.cls-1{fill:#ffffff;}.cls-2{fill:#ffc500;}.cls-3{fill:#ff9f1e;}.cls-4{fill:#ffe059;}.cls-5{fill:#00305f;}.cls-6{fill:#4795ff;}</style>

</defs>

<title />

<g data-name="Layer 1" id="Layer_1">

</g>

<g data-name="Layer 3" id="Layer_3">

<ellipse class="cls-5" cx="677.8" cy="1025.4" rx="94.9" ry="60.2" transform="translate(-376 1658.2) rotate(-87.5)" />

<circle class="cls-1" cx="711.1" cy="993.6" r="16.6" />

<ellipse class="cls-5" cx="1055.7" cy="1026.9" rx="60.2" ry="94.9" transform="translate(-43.5 46.7) rotate(-2.5)" />

<circle class="cls-1" cx="1079.8" cy="993.6" r="16.6" />

<path class="cls-5" d="M956.2,1319.9a29.8,29.8,0,0,1-15.6-4.4c-31.7-19.5-67.2-25.6-105.4-18.2-30.1,5.8-50.9,18.1-51.1,18.3h.2c-49.7,12.1-73.2-25.7-31.4-51.2,2.8-1.7,29.1-17.4,68.3-25.4,53.7-11,105.8-2.2,150.8,25.4a30,30,0,0,1-15.8,55.6Z" />

<path class="cls-6" d="M1421.4,880.1a29.2,29.2,0,0,1-9.3-1.5,30.1,30.1,0,0,1-20.2-22.6l-14.5-72.2c-66.1-2.6-128.2-21.1-176.1-52.6-26.4-17.4-47.3-37.9-62.1-61-16.1-25.1-24.3-52-24.3-80s8.2-54.9,24.3-80c14.8-23.1,35.7-43.6,62.1-60.9,51.9-34.2,120.2-53,192.5-53s140.6,18.8,192.5,53c26.4,17.3,47.2,37.8,62.1,60.9,16.1,25.1,24.3,52,24.3,80,0,29.9-14.3,63.8-42.5,100.7a387.3,387.3,0,0,1-39.7,44.4L1441.7,872.2A30.5,30.5,0,0,1,1421.4,880.1Zm148.7-166.9Z" />

<circle class="cls-5" cx="1287.6" cy="580.7" r="32.6" />

<circle class="cls-5" cx="1407.7" cy="580.7" r="32.6" />

<circle class="cls-5" cx="1527.7" cy="580.7" r="32.6" />

</g>

</svg>