<?xml version='1.0' encoding='utf-8'?>
<svg xmlns="http://www.w3.org/2000/svg" width="320" height="240" viewBox="0 256.25 2050 1537.5">

<defs>

<style>.cls-1{fill:#ffffff;}.cls-2{fill:#ffc500;}.cls-3{fill:#ff9f1e;}.cls-4{fill:#ffe059;}.cls-5{fill:#00305f;}.cls-6{fill:#ff4f4f;}</style>

</defs>

<title />

<g data-name="Layer 1" id="Layer_1">

</g>

<g data-name="Layer 3" id="Layer_3">

<path class="cls-5" d="M736.4,998.8a30,30,0,0,1-19.2-53c2.5-2.1,46.4-38.1,103.3-52.1A98.9,98.9,0,0,0,792,881a104.8,104.8,0,0,0-39.7-2.7h.2c-46.1,11.1-46.1-49.3-11.2-59,2.9-.5,29.4-5.2,62.7,2.9,31.4,7.6,75.1,28.2,104.7,83.3a30,30,0,0,1-2,31.6,29.7,29.7,0,0,1-29.1,12.2c-57.9-9.1-121.4,42.1-122,42.6A29.6,29.6,0,0,1,736.4,998.8Z" />

<path class="cls-5" d="M1313.6,998.8a30,30,0,0,0,19.2-53c-2.5-2.1-46.4-38.1-103.3-52.1A98.9,98.9,0,0,1,1258,881a104.8,104.8,0,0,1,39.7-2.7h-.2c46.1,11.1,46.1-49.3,11.2-59-2.9-.5-29.4-5.2-62.7,2.9-31.4,7.6-75.1,28.2-104.7,83.3a30,30,0,0,0,2,31.6,29.7,29.7,0,0,0,29.1,12.2c57.9-9.1,121.4,42.1,122,42.6A29.6,29.6,0,0,0,1313.6,998.8Z" />

<ellipse class="cls-5" cx="1014.4" cy="1295.7" rx="151.2" ry="189" />

<path class="cls-6" d="M1014.4,1295.7c-55.7,0-100.9,63-100.9,140.7,26.7,30,62.1,48.3,100.9,48.3s74.2-18.3,101-48.3h0C1115.4,1358.7,1070.2,1295.7,1014.4,1295.7Z" />

</g>

</svg>